<svg xmlns="http://www.w3.org/2000/svg" xmlns:xlink="http://www.w3.org/1999/xlink" width="500" zoomAndPan="magnify" viewBox="0 0 375 374.999991" height="500" preserveAspectRatio="xMidYMid meet" version="1.0"><defs><clipPath id="cf2ade6f0d"><path d="M 6.429688 5.015625 L 76.179688 5.015625 L 76.179688 75.515625 L 6.429688 75.515625 Z M 6.429688 5.015625 " clip-rule="nonzero"/></clipPath></defs><path fill="#000000" d="M 69.058594 13.800781 L 69.058594 12.011719 L 67.167969 12.011719 L 67.167969 13.800781 Z M 70.75 11.113281 L 70.75 14.695312 C 70.75 15.195312 70.351562 15.59375 69.855469 15.59375 L 66.371094 15.59375 C 65.875 15.59375 65.574219 15.195312 65.574219 14.695312 L 65.574219 11.113281 C 65.574219 10.71875 65.875 10.320312 66.371094 10.320312 L 69.855469 10.320312 C 70.355469 10.21875 70.75 10.71875 70.75 11.113281 Z M 70.75 11.113281 " fill-opacity="1" fill-rule="nonzero"/><path fill="#000000" d="M 59.507812 10.21875 L 62.988281 10.21875 C 63.488281 10.21875 63.886719 10.617188 63.886719 11.015625 L 63.886719 14.597656 C 63.886719 15.09375 63.488281 15.492188 62.988281 15.492188 L 59.507812 15.492188 C 59.109375 15.492188 58.710938 15.09375 58.710938 14.597656 L 58.710938 11.015625 C 58.710938 10.71875 59.109375 10.21875 59.507812 10.21875 Z M 62.292969 12.011719 L 60.503906 12.011719 L 60.503906 13.800781 L 62.292969 13.800781 Z M 62.292969 12.011719 " fill-opacity="1" fill-rule="nonzero"/><path fill="#000000" d="M 60.699219 64.042969 C 60.898438 64.042969 61.097656 63.945312 61.296875 63.84375 C 61.496094 63.648438 61.597656 63.449219 61.695312 63.050781 C 61.796875 62.550781 61.894531 61.757812 61.894531 60.460938 C 61.894531 59.367188 61.796875 58.570312 61.695312 57.976562 C 61.597656 57.574219 61.496094 57.277344 61.296875 57.179688 C 61.097656 56.980469 60.898438 56.878906 60.699219 56.878906 C 60.503906 56.878906 60.304688 56.980469 60.101562 57.179688 C 59.90625 57.277344 59.804688 57.574219 59.703125 57.875 C 59.507812 58.371094 59.507812 59.269531 59.507812 60.460938 C 59.507812 61.65625 59.507812 62.453125 59.605469 62.949219 C 59.804688 63.449219 59.90625 63.648438 60.101562 63.84375 C 60.304688 63.945312 60.402344 64.042969 60.699219 64.042969 Z M 60.699219 55.386719 C 61.597656 55.386719 62.390625 55.6875 62.890625 56.382812 C 63.585938 57.179688 63.886719 58.570312 63.886719 60.460938 C 63.886719 62.351562 63.585938 63.746094 62.890625 64.640625 C 62.390625 65.238281 61.597656 65.636719 60.699219 65.636719 C 59.707031 65.636719 58.910156 65.238281 58.410156 64.539062 C 57.816406 63.746094 57.515625 62.453125 57.515625 60.460938 C 57.515625 58.472656 57.816406 57.179688 58.410156 56.382812 C 58.910156 55.6875 59.703125 55.386719 60.699219 55.386719 Z M 60.699219 55.386719 " fill-opacity="1" fill-rule="nonzero"/><path fill="#000000" d="M 60.699219 35.09375 C 60.898438 35.09375 61.097656 35.09375 61.296875 34.894531 C 61.496094 34.792969 61.597656 34.496094 61.695312 34.097656 C 61.796875 33.601562 61.894531 32.804688 61.894531 31.511719 C 61.894531 30.417969 61.796875 29.621094 61.695312 29.023438 C 61.597656 28.625 61.496094 28.328125 61.296875 28.226562 C 61.097656 28.027344 60.898438 27.929688 60.699219 27.929688 C 60.503906 27.929688 60.304688 28.027344 60.101562 28.226562 C 59.90625 28.328125 59.804688 28.625 59.703125 29.023438 C 59.507812 29.421875 59.507812 30.316406 59.507812 31.511719 C 59.507812 32.703125 59.507812 33.5 59.605469 33.996094 C 59.804688 34.496094 59.90625 34.792969 60.101562 34.894531 C 60.304688 35.09375 60.402344 35.09375 60.699219 35.09375 Z M 60.699219 26.4375 C 61.597656 26.4375 62.390625 26.734375 62.890625 27.433594 C 63.585938 28.226562 63.886719 29.71875 63.886719 31.511719 C 63.886719 33.402344 63.585938 34.894531 62.890625 35.691406 C 62.390625 36.386719 61.597656 36.683594 60.699219 36.683594 C 59.707031 36.683594 58.910156 36.285156 58.410156 35.589844 C 57.816406 34.792969 57.515625 33.5 57.515625 31.511719 C 57.515625 29.71875 57.816406 28.226562 58.410156 27.433594 C 58.910156 26.734375 59.703125 26.4375 60.699219 26.4375 Z M 60.699219 26.4375 " fill-opacity="1" fill-rule="nonzero"/><path fill="#000000" d="M 60.699219 40.960938 C 61.597656 40.960938 62.390625 41.261719 62.890625 41.957031 C 63.585938 42.753906 63.886719 44.246094 63.886719 46.039062 C 63.886719 47.925781 63.585938 49.417969 62.890625 50.214844 C 62.390625 50.914062 61.597656 51.210938 60.699219 51.210938 C 59.707031 51.210938 58.910156 50.8125 58.410156 50.117188 C 57.816406 49.320312 57.515625 47.929688 57.515625 46.039062 C 57.515625 44.148438 57.816406 42.753906 58.410156 41.957031 C 58.910156 41.261719 59.703125 40.960938 60.699219 40.960938 Z M 60.699219 49.617188 C 60.898438 49.617188 61.097656 49.519531 61.296875 49.417969 C 61.496094 49.320312 61.597656 49.019531 61.695312 48.621094 C 61.796875 48.125 61.894531 47.328125 61.894531 46.035156 C 61.894531 44.941406 61.796875 44.144531 61.695312 43.546875 C 61.597656 43.148438 61.496094 42.851562 61.296875 42.753906 C 61.097656 42.554688 60.898438 42.453125 60.699219 42.453125 C 60.503906 42.453125 60.304688 42.554688 60.101562 42.753906 C 59.90625 42.851562 59.804688 43.148438 59.703125 43.449219 C 59.507812 43.945312 59.507812 44.839844 59.507812 46.035156 C 59.507812 47.230469 59.507812 48.027344 59.605469 48.523438 C 59.804688 49.019531 59.90625 49.320312 60.101562 49.417969 C 60.304688 49.519531 60.402344 49.617188 60.699219 49.617188 Z M 60.699219 49.617188 " fill-opacity="1" fill-rule="nonzero"/><path fill="#000000" d="M 55.527344 13.800781 L 55.527344 12.011719 L 53.734375 12.011719 L 53.734375 13.800781 Z M 56.320312 15.59375 L 52.839844 15.59375 C 52.441406 15.59375 52.042969 15.195312 52.042969 14.695312 L 52.042969 11.113281 C 52.042969 10.71875 52.441406 10.320312 52.839844 10.320312 L 56.320312 10.320312 C 56.820312 10.320312 57.21875 10.71875 57.21875 11.113281 L 57.21875 14.695312 C 57.21875 15.195312 56.820312 15.59375 56.320312 15.59375 Z M 56.320312 15.59375 " fill-opacity="1" fill-rule="nonzero"/><path fill="#000000" d="M 52.539062 29.324219 C 51.945312 29.917969 51.046875 30.417969 50.152344 30.714844 L 50.152344 29.023438 C 50.648438 28.824219 51.148438 28.527344 51.746094 28.128906 C 52.339844 27.628906 52.738281 27.132812 52.9375 26.535156 L 54.429688 26.535156 L 54.429688 36.585938 L 52.539062 36.585938 Z M 52.539062 29.324219 " fill-opacity="1" fill-rule="nonzero"/><path fill="#000000" d="M 50.152344 45.140625 L 50.152344 43.449219 C 50.648438 43.25 51.148438 42.953125 51.746094 42.453125 C 52.339844 42.058594 52.738281 41.558594 52.9375 40.964844 L 54.429688 40.964844 L 54.429688 51.011719 L 52.539062 51.011719 L 52.539062 43.75 C 51.945312 44.34375 51.046875 44.941406 50.152344 45.140625 Z M 50.152344 45.140625 " fill-opacity="1" fill-rule="nonzero"/><path fill="#000000" d="M 50.152344 59.667969 L 50.152344 57.976562 C 50.648438 57.777344 51.148438 57.476562 51.746094 56.980469 C 52.339844 56.582031 52.738281 56.085938 52.9375 55.488281 L 54.429688 55.488281 L 54.429688 65.539062 L 52.539062 65.539062 L 52.539062 58.175781 C 51.945312 58.871094 51.046875 59.367188 50.152344 59.667969 Z M 50.152344 59.667969 " fill-opacity="1" fill-rule="nonzero"/><path fill="#000000" d="M 46.867188 31.511719 C 46.867188 30.417969 46.769531 29.621094 46.667969 29.023438 C 46.570312 28.625 46.46875 28.328125 46.273438 28.226562 C 46.074219 28.027344 45.875 27.929688 45.671875 27.929688 C 45.476562 27.929688 45.277344 28.027344 45.078125 28.226562 C 44.878906 28.328125 44.777344 28.625 44.679688 29.023438 C 44.578125 29.421875 44.480469 30.316406 44.480469 31.511719 C 44.480469 32.703125 44.480469 33.5 44.679688 33.996094 C 44.777344 34.496094 44.878906 34.792969 45.078125 34.894531 C 45.277344 35.09375 45.476562 35.09375 45.671875 35.09375 C 45.875 35.09375 46.074219 35.09375 46.273438 34.894531 C 46.46875 34.792969 46.570312 34.496094 46.667969 34.097656 C 46.769531 33.601562 46.867188 32.804688 46.867188 31.511719 Z M 47.863281 27.433594 C 48.5625 28.226562 48.859375 29.71875 48.859375 31.511719 C 48.859375 33.402344 48.558594 34.894531 47.863281 35.691406 C 47.367188 36.386719 46.667969 36.683594 45.671875 36.683594 C 44.679688 36.683594 43.984375 36.285156 43.382812 35.589844 C 42.789062 34.792969 42.488281 33.5 42.488281 31.511719 C 42.488281 29.71875 42.789062 28.226562 43.484375 27.433594 C 43.980469 26.734375 44.675781 26.4375 45.671875 26.4375 C 46.667969 26.4375 47.367188 26.734375 47.863281 27.433594 Z M 47.863281 27.433594 " fill-opacity="1" fill-rule="nonzero"/><path fill="#000000" d="M 46.867188 46.035156 C 46.867188 44.941406 46.769531 44.144531 46.667969 43.550781 C 46.570312 43.152344 46.46875 42.851562 46.273438 42.753906 C 46.074219 42.554688 45.875 42.453125 45.671875 42.453125 C 45.476562 42.453125 45.277344 42.554688 45.078125 42.753906 C 44.878906 42.851562 44.777344 43.152344 44.679688 43.449219 C 44.578125 43.945312 44.480469 44.84375 44.480469 46.035156 C 44.480469 47.230469 44.480469 48.027344 44.679688 48.523438 C 44.777344 49.023438 44.878906 49.320312 45.078125 49.417969 C 45.277344 49.519531 45.476562 49.617188 45.671875 49.617188 C 45.875 49.617188 46.074219 49.519531 46.273438 49.417969 C 46.46875 49.320312 46.570312 49.023438 46.667969 48.625 C 46.769531 48.027344 46.867188 47.230469 46.867188 46.035156 Z M 47.863281 41.957031 C 48.5625 42.753906 48.859375 44.246094 48.859375 46.035156 C 48.859375 47.925781 48.558594 49.417969 47.863281 50.214844 C 47.367188 50.910156 46.667969 51.210938 45.671875 51.210938 C 44.679688 51.210938 43.984375 50.8125 43.382812 50.117188 C 42.789062 49.320312 42.488281 47.925781 42.488281 46.039062 C 42.488281 44.144531 42.789062 42.753906 43.484375 41.957031 C 43.980469 41.261719 44.675781 40.960938 45.671875 40.960938 C 46.667969 40.960938 47.367188 41.261719 47.863281 41.957031 Z M 47.863281 41.957031 " fill-opacity="1" fill-rule="nonzero"/><path fill="#000000" d="M 46.867188 60.464844 C 46.867188 59.367188 46.769531 58.574219 46.667969 57.976562 C 46.570312 57.578125 46.46875 57.277344 46.273438 57.179688 C 46.074219 56.980469 45.875 56.878906 45.671875 56.878906 C 45.476562 56.878906 45.277344 56.980469 45.078125 57.179688 C 44.878906 57.277344 44.777344 57.578125 44.679688 57.875 C 44.578125 58.375 44.480469 59.269531 44.480469 60.464844 C 44.480469 61.65625 44.480469 62.453125 44.679688 62.949219 C 44.777344 63.449219 44.878906 63.648438 45.078125 63.847656 C 45.277344 63.945312 45.476562 64.042969 45.671875 64.042969 C 45.875 64.042969 46.074219 63.945312 46.273438 63.847656 C 46.46875 63.648438 46.570312 63.449219 46.667969 63.050781 C 46.769531 62.550781 46.867188 61.65625 46.867188 60.464844 Z M 47.863281 56.382812 C 48.5625 57.179688 48.859375 58.574219 48.859375 60.464844 C 48.859375 62.351562 48.558594 63.746094 47.863281 64.640625 C 47.367188 65.238281 46.667969 65.636719 45.671875 65.636719 C 44.679688 65.636719 43.984375 65.238281 43.382812 64.542969 C 42.789062 63.746094 42.488281 62.453125 42.488281 60.464844 C 42.488281 58.574219 42.789062 57.179688 43.484375 56.382812 C 43.980469 55.6875 44.675781 55.386719 45.671875 55.386719 C 46.667969 55.386719 47.367188 55.6875 47.863281 56.382812 Z M 47.863281 56.382812 " fill-opacity="1" fill-rule="nonzero"/><path fill="#000000" d="M 39.605469 26.4375 L 39.605469 36.484375 L 37.714844 36.484375 L 37.714844 29.222656 C 37.015625 29.820312 36.21875 30.316406 35.226562 30.617188 L 35.226562 28.925781 C 35.722656 28.726562 36.21875 28.425781 36.816406 28.027344 C 37.414062 27.53125 37.8125 27.035156 38.011719 26.4375 Z M 39.605469 26.4375 " fill-opacity="1" fill-rule="nonzero"/><path fill="#000000" d="M 39.605469 40.960938 L 39.605469 51.011719 L 37.714844 51.011719 L 37.714844 43.75 C 37.015625 44.34375 36.21875 44.84375 35.226562 45.140625 L 35.226562 43.449219 C 35.722656 43.25 36.21875 42.953125 36.816406 42.453125 C 37.414062 42.058594 37.8125 41.558594 38.011719 40.960938 Z M 39.605469 40.960938 " fill-opacity="1" fill-rule="nonzero"/><path fill="#000000" d="M 39.605469 55.386719 L 39.605469 65.4375 L 37.714844 65.4375 L 37.714844 58.074219 C 37.015625 58.773438 36.21875 59.269531 35.226562 59.566406 L 35.226562 57.875 C 35.722656 57.675781 36.21875 57.378906 36.816406 56.882812 C 37.414062 56.484375 37.8125 55.984375 38.011719 55.386719 Z M 39.605469 55.386719 " fill-opacity="1" fill-rule="nonzero"/><path fill="#000000" d="M 31.84375 31.511719 C 31.84375 30.417969 31.84375 29.621094 31.644531 29.023438 C 31.542969 28.625 31.445312 28.328125 31.246094 28.226562 C 31.046875 28.027344 30.847656 27.929688 30.648438 27.929688 C 30.449219 27.929688 30.25 28.027344 30.050781 28.226562 C 29.851562 28.328125 29.75 28.625 29.652344 29.023438 C 29.550781 29.421875 29.453125 30.316406 29.453125 31.511719 C 29.453125 32.703125 29.550781 33.5 29.652344 33.996094 C 29.75 34.496094 29.851562 34.792969 30.050781 34.894531 C 30.25 35.09375 30.449219 35.09375 30.648438 35.09375 C 30.847656 35.09375 31.046875 35.09375 31.246094 34.894531 C 31.445312 34.792969 31.542969 34.496094 31.644531 34.097656 C 31.84375 33.601562 31.84375 32.804688 31.84375 31.511719 Z M 28.257812 35.589844 C 27.664062 34.792969 27.363281 33.5 27.363281 31.511719 C 27.363281 29.71875 27.664062 28.226562 28.359375 27.429688 C 28.855469 26.734375 29.652344 26.4375 30.546875 26.4375 C 31.542969 26.4375 32.238281 26.734375 32.835938 27.429688 C 33.433594 28.226562 33.730469 29.71875 33.730469 31.511719 C 33.730469 33.402344 33.433594 34.894531 32.835938 35.6875 C 32.238281 36.386719 31.542969 36.683594 30.546875 36.683594 C 29.652344 36.785156 28.855469 36.386719 28.257812 35.589844 Z M 28.257812 35.589844 " fill-opacity="1" fill-rule="nonzero"/><path fill="#000000" d="M 31.84375 46.035156 C 31.84375 44.941406 31.84375 44.144531 31.644531 43.550781 C 31.542969 43.152344 31.445312 42.851562 31.246094 42.753906 C 31.046875 42.554688 30.847656 42.453125 30.648438 42.453125 C 30.449219 42.453125 30.25 42.554688 30.050781 42.753906 C 29.851562 42.851562 29.75 43.152344 29.652344 43.449219 C 29.550781 43.945312 29.453125 44.84375 29.453125 46.035156 C 29.453125 47.230469 29.550781 48.027344 29.652344 48.523438 C 29.75 49.023438 29.851562 49.320312 30.050781 49.417969 C 30.25 49.519531 30.449219 49.617188 30.648438 49.617188 C 30.847656 49.617188 31.046875 49.519531 31.246094 49.417969 C 31.445312 49.320312 31.542969 49.023438 31.644531 48.625 C 31.84375 48.027344 31.84375 47.230469 31.84375 46.035156 Z M 28.257812 50.117188 C 27.664062 49.320312 27.363281 47.925781 27.363281 46.035156 C 27.363281 44.144531 27.664062 42.753906 28.359375 41.957031 C 28.855469 41.261719 29.652344 40.960938 30.546875 40.960938 C 31.542969 40.960938 32.238281 41.261719 32.835938 41.957031 C 33.433594 42.753906 33.730469 44.246094 33.730469 46.035156 C 33.730469 47.925781 33.433594 49.417969 32.835938 50.214844 C 32.238281 50.910156 31.542969 51.210938 30.546875 51.210938 C 29.652344 51.210938 28.855469 50.8125 28.257812 50.117188 Z M 28.257812 50.117188 " fill-opacity="1" fill-rule="nonzero"/><path fill="#000000" d="M 31.644531 63.050781 C 31.84375 62.550781 31.84375 61.757812 31.84375 60.460938 C 31.84375 59.367188 31.84375 58.570312 31.644531 57.976562 C 31.542969 57.574219 31.445312 57.277344 31.246094 57.179688 C 31.046875 56.980469 30.847656 56.878906 30.648438 56.878906 C 30.449219 56.878906 30.25 56.980469 30.050781 57.179688 C 29.851562 57.277344 29.75 57.574219 29.652344 57.875 C 29.550781 58.371094 29.453125 59.269531 29.453125 60.460938 C 29.453125 61.65625 29.550781 62.453125 29.652344 62.949219 C 29.75 63.449219 29.851562 63.648438 30.050781 63.84375 C 30.25 63.945312 30.449219 64.042969 30.648438 64.042969 C 30.847656 64.042969 31.046875 63.945312 31.246094 63.84375 C 31.445312 63.648438 31.542969 63.449219 31.644531 63.050781 Z M 28.257812 64.542969 C 27.664062 63.746094 27.363281 62.453125 27.363281 60.464844 C 27.363281 58.574219 27.664062 57.179688 28.359375 56.382812 C 28.855469 55.6875 29.652344 55.386719 30.546875 55.386719 C 31.542969 55.386719 32.242188 55.6875 32.835938 56.382812 C 33.433594 57.179688 33.734375 58.574219 33.734375 60.464844 C 33.734375 62.351562 33.433594 63.746094 32.835938 64.640625 C 32.242188 65.238281 31.542969 65.636719 30.546875 65.636719 C 29.652344 65.636719 28.855469 65.238281 28.257812 64.542969 Z M 28.257812 64.542969 " fill-opacity="1" fill-rule="nonzero"/><path fill="#000000" d="M 22.589844 58.175781 C 21.890625 58.871094 21.09375 59.367188 20.097656 59.667969 L 20.097656 57.976562 C 20.597656 57.777344 21.195312 57.476562 21.691406 56.980469 C 22.289062 56.582031 22.6875 56.085938 22.886719 55.488281 L 24.476562 55.488281 L 24.476562 65.539062 L 22.585938 65.539062 L 22.585938 58.175781 Z M 22.589844 58.175781 " fill-opacity="1" fill-rule="nonzero"/><path fill="#000000" d="M 22.589844 43.75 C 21.890625 44.34375 21.09375 44.84375 20.097656 45.140625 L 20.097656 43.449219 C 20.597656 43.25 21.195312 42.953125 21.691406 42.453125 C 22.289062 42.058594 22.6875 41.558594 22.886719 40.960938 L 24.476562 40.960938 L 24.476562 51.011719 L 22.585938 51.011719 L 22.585938 43.75 Z M 22.589844 43.75 " fill-opacity="1" fill-rule="nonzero"/><path fill="#000000" d="M 22.589844 29.324219 C 21.890625 29.917969 21.09375 30.417969 20.097656 30.714844 L 20.097656 29.023438 C 20.597656 28.824219 21.195312 28.527344 21.691406 28.128906 C 22.289062 27.628906 22.6875 27.132812 22.886719 26.535156 L 24.476562 26.535156 L 24.476562 36.585938 L 22.585938 36.585938 L 22.585938 29.324219 Z M 22.589844 29.324219 " fill-opacity="1" fill-rule="nonzero"/><path fill="#000000" d="M 12.835938 20.46875 C 12.535156 20.46875 12.238281 20.566406 11.9375 20.867188 C 11.742188 21.0625 11.542969 21.363281 11.542969 21.761719 L 11.542969 69.417969 C 11.542969 69.816406 11.742188 70.113281 11.9375 70.3125 C 12.238281 70.613281 12.535156 70.710938 12.835938 70.710938 L 69.957031 70.710938 C 70.253906 70.710938 70.550781 70.613281 70.851562 70.3125 C 71.050781 70.113281 71.25 69.816406 71.25 69.417969 L 71.25 21.761719 C 71.25 21.363281 71.050781 21.0625 70.851562 20.867188 C 70.550781 20.566406 70.253906 20.464844 69.957031 20.464844 L 12.835938 20.464844 Z M 69.957031 72.5 L 12.835938 72.5 C 12.039062 72.5 11.34375 72.203125 10.746094 71.605469 C 10.25 71.109375 9.847656 70.3125 9.847656 69.515625 L 9.847656 21.859375 C 9.847656 21.0625 10.25 20.269531 10.746094 19.769531 C 11.34375 19.171875 12.039062 18.875 12.835938 18.875 L 69.957031 18.875 C 70.753906 18.875 71.449219 19.171875 72.046875 19.769531 C 72.542969 20.269531 72.941406 21.0625 72.941406 21.859375 L 72.941406 69.515625 C 72.941406 70.3125 72.542969 71.109375 72.046875 71.605469 C 71.449219 72.203125 70.75 72.5 69.957031 72.5 Z M 69.957031 72.5 " fill-opacity="1" fill-rule="nonzero"/><g clip-path="url(#cf2ade6f0d)"><path fill="#000000" d="M 7.460938 5.046875 L 75.328125 5.046875 C 75.828125 5.046875 76.125 5.445312 76.125 5.84375 L 76.222656 74.589844 C 76.222656 75.089844 75.828125 75.484375 75.328125 75.484375 L 7.363281 75.484375 C 6.863281 75.484375 6.464844 75.089844 6.464844 74.589844 L 6.464844 5.941406 C 6.464844 5.445312 6.863281 5.046875 7.363281 5.046875 Z M 74.433594 6.835938 L 8.15625 6.835938 L 8.15625 73.894531 L 74.53125 73.894531 Z M 74.433594 6.835938 " fill-opacity="1" fill-rule="nonzero"/></g></svg>