<svg width="800" height="600" xmlns="http://www.w3.org/2000/svg">
  <defs>
    <linearGradient id="bgGradient1" x1="0%" y1="0%" x2="100%" y2="100%">
      <stop offset="0%" style="stop-color:#1a1a1a;stop-opacity:1" />
      <stop offset="100%" style="stop-color:#2d2d2d;stop-opacity:1" />
    </linearGradient>
    <linearGradient id="borderGradient1" x1="0%" y1="0%" x2="100%" y2="0%">
      <stop offset="0%" style="stop-color:#f97316;stop-opacity:1" />
      <stop offset="100%" style="stop-color:#facc15;stop-opacity:1" />
    </linearGradient>
  </defs>

  <rect width="800" height="600" fill="url(#bgGradient1)"/>

  <rect x="20" y="20" width="760" height="560" fill="none" stroke="url(#borderGradient1)" stroke-width="3" rx="8"/>

  <text x="400" y="280" font-family="Arial, sans-serif" font-size="48" font-weight="bold" fill="#f97316" text-anchor="middle">
    BEEFTHROAT.COM
  </text>

  <text x="400" y="320" font-family="Arial, sans-serif" font-size="18" fill="#a0a0a0" text-anchor="middle">
    Welcome to Beefthroat.com
  </text>

  <g transform="translate(200, 360)">
    <rect width="120" height="80" fill="#2d2d2d" rx="4" stroke="#f97316" stroke-width="2"/>
    <text x="60" y="45" font-family="Arial, sans-serif" font-size="12" fill="#a0a0a0" text-anchor="middle">Apparel</text>
  </g>

  <g transform="translate(340, 360)">
    <rect width="120" height="80" fill="#2d2d2d" rx="4" stroke="#f97316" stroke-width="2"/>
    <text x="60" y="45" font-family="Arial, sans-serif" font-size="12" fill="#a0a0a0" text-anchor="middle">Products</text>
  </g>

  <g transform="translate(480, 360)">
    <rect width="120" height="80" fill="#2d2d2d" rx="4" stroke="#f97316" stroke-width="2"/>
    <text x="60" y="45" font-family="Arial, sans-serif" font-size="12" fill="#a0a0a0" text-anchor="middle">Community</text>
  </g>

  <circle cx="400" cy="180" r="50" fill="none" stroke="#f97316" stroke-width="2"/>
  <path d="M400 140 L400 160 M400 200 L400 220 M370 180 L390 180 M410 180 L430 180" stroke="#f97316" stroke-width="2"/>
</svg>
