<svg width="800" height="600" xmlns="http://www.w3.org/2000/svg">
  <defs>
    <linearGradient id="bgGradient2" x1="0%" y1="0%" x2="100%" y2="100%">
      <stop offset="0%" style="stop-color:#1a1a1a;stop-opacity:1" />
      <stop offset="100%" style="stop-color:#2d2d2d;stop-opacity:1" />
    </linearGradient>
    <linearGradient id="borderGradient2" x1="0%" y1="0%" x2="100%" y2="0%">
      <stop offset="0%" style="stop-color:#a855f7;stop-opacity:1" />
      <stop offset="100%" style="stop-color:#ec4899;stop-opacity:1" />
    </linearGradient>
  </defs>

  <rect width="800" height="600" fill="url(#bgGradient2)"/>

  <rect x="20" y="20" width="760" height="560" fill="none" stroke="url(#borderGradient2)" stroke-width="3" rx="8"/>

  <text x="400" y="280" font-family="Arial, sans-serif" font-size="40" font-weight="bold" fill="#a855f7" text-anchor="middle">
    THE NORTH STAR LEDGER
  </text>

  <text x="400" y="320" font-family="Arial, sans-serif" font-size="18" fill="#a0a0a0" text-anchor="middle">
    Your Browser Just Got Rejected by AI
  </text>

  <g transform="translate(100, 360)">
    <rect width="180" height="100" fill="#2d2d2d" rx="4" stroke="#a855f7" stroke-width="2"/>
    <line x1="20" y1="30" x2="160" y2="30" stroke="#606060" stroke-width="2"/>
    <line x1="20" y1="50" x2="140" y2="50" stroke="#606060" stroke-width="2"/>
    <line x1="20" y1="70" x2="150" y2="70" stroke="#606060" stroke-width="2"/>
  </g>

  <g transform="translate(310, 360)">
    <rect width="180" height="100" fill="#2d2d2d" rx="4" stroke="#a855f7" stroke-width="2"/>
    <line x1="20" y1="30" x2="160" y2="30" stroke="#606060" stroke-width="2"/>
    <line x1="20" y1="50" x2="140" y2="50" stroke="#606060" stroke-width="2"/>
    <line x1="20" y1="70" x2="150" y2="70" stroke="#606060" stroke-width="2"/>
  </g>

  <g transform="translate(520, 360)">
    <rect width="180" height="100" fill="#2d2d2d" rx="4" stroke="#a855f7" stroke-width="2"/>
    <line x1="20" y1="30" x2="160" y2="30" stroke="#606060" stroke-width="2"/>
    <line x1="20" y1="50" x2="140" y2="50" stroke="#606060" stroke-width="2"/>
    <line x1="20" y1="70" x2="150" y2="70" stroke="#606060" stroke-width="2"/>
  </g>

  <polygon points="350,150 380,180 350,210 320,180" fill="none" stroke="#a855f7" stroke-width="2"/>
  <polygon points="420,150 450,180 420,210 390,180" fill="none" stroke="#a855f7" stroke-width="2"/>
</svg>
