<svg width="800" height="600" xmlns="http://www.w3.org/2000/svg">
  <defs>
    <linearGradient id="bgGradient3" x1="0%" y1="0%" x2="100%" y2="100%">
      <stop offset="0%" style="stop-color:#1a1a1a;stop-opacity:1" />
      <stop offset="100%" style="stop-color:#2d2d2d;stop-opacity:1" />
    </linearGradient>
    <linearGradient id="borderGradient3" x1="0%" y1="0%" x2="100%" y2="0%">
      <stop offset="0%" style="stop-color:#10b981;stop-opacity:1" />
      <stop offset="100%" style="stop-color:#06b6d4;stop-opacity:1" />
    </linearGradient>
  </defs>

  <rect width="800" height="600" fill="url(#bgGradient3)"/>

  <rect x="20" y="20" width="760" height="560" fill="none" stroke="url(#borderGradient3)" stroke-width="3" rx="8"/>

  <text x="400" y="280" font-family="Arial, sans-serif" font-size="44" font-weight="bold" fill="#10b981" text-anchor="middle">
    THE TRUTH ARBITER
  </text>

  <text x="400" y="320" font-family="Arial, sans-serif" font-size="18" fill="#a0a0a0" text-anchor="middle">
    Where Inclusive Dialogue Shapes Understanding
  </text>

  <g transform="translate(150, 360)">
    <rect width="150" height="90" fill="#2d2d2d" rx="4" stroke="#10b981" stroke-width="2"/>
    <circle cx="30" cy="30" r="8" fill="#10b981"/>
    <line x1="50" y1="30" x2="130" y2="30" stroke="#606060" stroke-width="2"/>
    <line x1="50" y1="50" x2="110" y2="50" stroke="#606060" stroke-width="2"/>
    <line x1="50" y1="70" x2="120" y2="70" stroke="#606060" stroke-width="2"/>
  </g>

  <g transform="translate(330, 360)">
    <rect width="150" height="90" fill="#2d2d2d" rx="4" stroke="#10b981" stroke-width="2"/>
    <circle cx="30" cy="30" r="8" fill="#10b981"/>
    <line x1="50" y1="30" x2="130" y2="30" stroke="#606060" stroke-width="2"/>
    <line x1="50" y1="50" x2="110" y2="50" stroke="#606060" stroke-width="2"/>
    <line x1="50" y1="70" x2="120" y2="70" stroke="#606060" stroke-width="2"/>
  </g>

  <g transform="translate(510, 360)">
    <rect width="150" height="90" fill="#2d2d2d" rx="4" stroke="#10b981" stroke-width="2"/>
    <circle cx="30" cy="30" r="8" fill="#10b981"/>
    <line x1="50" y1="30" x2="130" y2="30" stroke="#606060" stroke-width="2"/>
    <line x1="50" y1="50" x2="110" y2="50" stroke="#606060" stroke-width="2"/>
    <line x1="50" y1="70" x2="120" y2="70" stroke="#606060" stroke-width="2"/>
  </g>

  <path d="M 350 180 Q 400 150 450 180" fill="none" stroke="#10b981" stroke-width="2"/>
  <path d="M 330 200 Q 400 160 470 200" fill="none" stroke="#10b981" stroke-width="2"/>
</svg>
